<svg width="513" height="338" viewBox="0 0 513 338" fill="none" xmlns="http://www.w3.org/2000/svg">
<g clip-path="url(#clip0_356_10279)">
<path d="M334.807 147.318C334.216 150.423 333.507 153.497 332.68 156.54C332.59 156.893 332.49 157.241 332.39 157.594H320.89C319.91 157.595 318.971 157.984 318.278 158.676C317.586 159.368 317.196 160.306 317.195 161.285V194.038C316.847 194.686 316.493 195.33 316.14 195.973C314.314 199.295 312.414 202.579 310.471 205.822C278.801 258.524 234.63 302.626 181.858 334.235L184.982 327.191C183.837 327.112 182.686 327.033 181.541 326.954C156.604 325.251 131.582 323.363 107.23 317.764C81.7545 311.906 56.8331 301.746 36.8673 284.9C16.8961 268.049 2.25571 243.985 0.223721 217.949C-0.453839 209.001 0.452005 200.004 2.89971 191.37C7.58088 174.751 17.8094 159.798 32.566 150.951C55.7458 137.058 85.9821 139.889 110.418 151.446C134.849 162.999 154.735 182.122 174.152 200.913C154.548 167.329 127.253 138.866 94.5056 117.86C83.6545 110.922 72.1386 104.742 62.9131 95.7524C53.6927 86.768 46.8896 74.1719 48.5206 61.4071C50.373 46.9286 62.2428 35.9407 74.1334 27.4677C78.8834 24.0827 83.7865 20.8717 88.8426 17.9191C103.108 9.56738 118.541 3.26669 134.838 0.930952C156.915 -2.23785 180.76 2.57072 197.686 17.0808C216.754 33.4309 224.576 59.7989 223.832 85.0228C235.58 67.9608 253.698 54.9007 274.16 54.3471C295.403 53.7777 315.596 67.1858 326.236 85.5659C336.871 103.941 338.781 126.465 334.807 147.318Z" fill="#F00000"/>
<path d="M200.405 218.178C212.847 217.084 224.341 215.805 236.397 212.397C248.084 209.093 259.33 203.562 267.649 194.532C276.598 184.819 281.428 172.205 284.836 159.648C286.736 152.647 288.297 145.549 289.771 138.447C291.369 130.742 292.789 123.004 294.031 115.231C296.504 99.7583 298.269 84.1948 299.327 68.5402C299.454 66.64 299.571 64.7391 299.678 62.8375C299.744 61.6645 297.918 61.6683 297.852 62.8375C296.983 78.2685 295.42 93.6392 293.163 108.95C290.935 123.992 288.085 138.97 284.469 153.743C281.406 166.258 277.439 178.968 269.583 189.387C262.215 199.156 251.574 205.541 240.084 209.358C228.392 213.242 216.065 214.793 203.847 215.946C202.348 216.087 201.905 216.222 200.405 216.354C199.243 216.456 199.233 218.282 200.405 218.178Z" fill="white"/>
<path d="M3.95357 192.716C19.6515 193.586 35.1899 196.321 50.2399 200.864C65.2964 205.398 79.7652 211.69 93.3466 219.609C106.47 227.267 118.652 236.431 129.647 246.913C140.317 257.093 149.827 268.421 158.003 280.69C166.216 292.991 173.022 306.172 178.294 319.988C178.937 321.679 179.556 323.379 180.152 325.087C180.537 326.189 182.301 325.715 181.913 324.602C176.98 310.494 170.478 296.985 162.528 284.327C154.58 271.667 145.252 259.927 134.714 249.321C124.008 238.551 112.093 229.052 99.2053 221.012C72.1456 204.173 41.4737 193.986 9.70815 191.288C7.792 191.127 5.87381 190.995 3.95359 190.892C2.77929 190.827 2.78288 192.652 3.95357 192.716Z" fill="white"/>
<path d="M89.3359 20.0576C99.3729 23.2466 108.887 27.8911 117.573 33.8423C126.448 39.9649 134.543 47.1464 141.677 55.2278C149.195 63.7291 155.879 72.9317 161.638 82.7089C167.745 93.0323 173.051 103.809 177.508 114.943C182.097 126.374 185.958 138.084 189.065 150.003C192.224 162.063 194.692 174.293 196.455 186.634C198.21 198.844 199.272 211.143 199.637 223.473C200.004 235.263 199.655 247.064 198.592 258.812C197.62 269.772 195.845 280.646 193.281 291.346C191.004 301.011 187.795 310.433 183.699 319.479C182.75 321.532 181.744 323.557 180.679 325.553C180.127 326.589 181.702 327.512 182.256 326.474C186.782 317.833 190.396 308.746 193.04 299.358C196.007 288.907 198.157 278.242 199.472 267.459C200.929 255.76 201.639 243.98 201.597 232.191C201.57 219.806 200.832 207.433 199.386 195.132C197.94 182.677 195.792 170.315 192.953 158.102C190.121 145.869 186.528 133.824 182.196 122.038C178.021 110.628 173.022 99.536 167.238 88.8496C161.73 78.6521 155.31 68.9726 148.058 59.9292C141.171 51.3185 133.308 43.5342 124.627 36.732C116.256 30.1925 107.005 24.862 97.1479 20.8972C94.739 19.9393 92.2968 19.0731 89.8213 18.2984C88.6977 17.9453 88.2169 19.7059 89.3359 20.0576Z" fill="white"/>
<path d="M197.654 337.388C269.796 337.388 328.279 335.027 328.279 332.115C328.279 329.203 269.796 326.843 197.654 326.843C125.512 326.843 67.0298 329.203 67.0298 332.115C67.0298 335.027 125.512 337.388 197.654 337.388Z" fill="#E8DAC5"/>
<path d="M313.062 166.974C312.997 167.258 312.955 167.547 312.936 167.838L290.264 180.905L284.753 177.736L278.878 185.419L290.667 193.813L316.533 173.428C317.588 173.818 318.736 173.878 319.826 173.6C320.916 173.322 321.895 172.719 322.634 171.871C323.372 171.023 323.835 169.971 323.96 168.854C324.085 167.738 323.867 166.609 323.335 165.619C322.803 164.629 321.981 163.825 320.98 163.312C319.979 162.8 318.845 162.605 317.73 162.752C316.615 162.899 315.571 163.381 314.737 164.136C313.903 164.89 313.319 165.88 313.062 166.974Z" fill="#FFB8B8"/>
<path d="M261.429 174.99L279.28 187.701L287.265 177.7L269.911 163.79C269.165 163.192 268.304 162.752 267.381 162.497C266.458 162.243 265.493 162.179 264.545 162.311C263.597 162.442 262.686 162.765 261.867 163.261C261.048 163.756 260.339 164.413 259.784 165.192C258.701 166.709 258.266 168.594 258.575 170.431C258.883 172.269 259.91 173.909 261.429 174.99Z" fill="#BCBCBC"/>
<path d="M224.579 320.021L230.838 321.659L240.143 298.321L230.905 295.902L224.579 320.021Z" fill="#FFB8B8"/>
<path d="M241.386 330.625L221.715 325.476L223.706 317.883L235.777 321.043C237.793 321.571 239.516 322.877 240.568 324.674C241.62 326.471 241.914 328.612 241.386 330.625Z" fill="#2F2E41"/>
<path d="M280.218 324.473L286.588 323.336L285.23 298.251L275.83 299.929L280.218 324.473Z" fill="#FFB8B8"/>
<path d="M299.929 327.053L279.91 330.625L278.528 322.899L290.813 320.706C291.828 320.525 292.87 320.546 293.878 320.766C294.885 320.987 295.84 321.404 296.686 321.994C297.533 322.583 298.255 323.333 298.811 324.201C299.368 325.069 299.747 326.038 299.929 327.053Z" fill="#2F2E41"/>
<path d="M267.676 139.991C269.245 140.372 270.522 141.97 271.289 143.821C271.997 145.765 272.475 147.785 272.716 149.839C273.319 153.665 273.898 157.808 272.651 161.351C271.191 165.505 267.299 167.68 263.923 166.658C260.546 165.635 257.861 161.798 256.944 157.381C256.109 152.918 256.647 148.307 258.487 144.155C259.446 141.974 260.768 139.962 262.525 138.978C263.387 138.457 264.414 138.282 265.4 138.487C266.386 138.692 267.257 139.263 267.839 140.084" fill="#2F2E41"/>
<path d="M276.557 209.265L288.683 317.771L278.668 321.57L260.196 248.809L234.478 315.337L223.515 315.946C223.515 315.946 238.557 212.429 249.704 210.076L276.557 209.265Z" fill="#2F2E41"/>
<path d="M266.371 153.838C273.53 153.838 279.334 148.04 279.334 140.888C279.334 133.736 273.53 127.938 266.371 127.938C259.212 127.938 253.408 133.736 253.408 140.888C253.408 148.04 259.212 153.838 266.371 153.838Z" fill="#FFB8B8"/>
<path d="M271.934 159.271L257.926 157.445C257.926 157.445 248.791 168.397 249.4 187.259C250.009 206.121 247.877 211.901 247.877 211.901L277.084 212.429C272.862 206.629 290.522 173.318 271.934 159.271Z" fill="#BCBCBC"/>
<path d="M279.46 215.065C279.168 215.067 278.876 215.092 278.588 215.14L260.667 196.082L262.494 189.997L253.663 186.042L248.182 199.428L273.965 219.917C273.826 221.032 274.03 222.163 274.551 223.159C275.071 224.155 275.883 224.97 276.878 225.494C277.873 226.018 279.004 226.227 280.121 226.093C281.238 225.96 282.288 225.489 283.13 224.745C283.973 224.001 284.569 223.018 284.839 221.927C285.109 220.836 285.04 219.689 284.642 218.638C284.243 217.587 283.534 216.683 282.608 216.044C281.683 215.406 280.584 215.064 279.46 215.065Z" fill="#FFB8B8"/>
<path d="M259.832 166.686L251.531 186.955L263.103 192.431L272.686 172.372C273.099 171.509 273.33 170.571 273.367 169.615C273.404 168.659 273.245 167.706 272.9 166.814C272.555 165.922 272.032 165.11 271.361 164.427C270.691 163.744 269.889 163.206 269.003 162.843C268.148 162.494 267.233 162.316 266.309 162.32C265.386 162.324 264.472 162.51 263.621 162.867C262.769 163.224 261.996 163.745 261.346 164.4C260.696 165.055 260.181 165.832 259.832 166.686Z" fill="#BCBCBC"/>
<path d="M262.98 152.661C265.011 151.491 265.228 148.667 264.952 146.341C264.676 144.014 264.215 141.421 265.583 139.519C267.217 137.249 270.499 137.204 273.296 137.13C276.094 137.056 279.501 136.237 280.226 133.537C280.705 131.752 279.68 129.838 278.21 128.718C276.739 127.598 274.899 127.102 273.111 126.632C269.111 125.579 264.98 124.517 260.884 125.096C256.827 125.669 253.159 127.815 250.674 131.069C248.189 134.323 247.086 138.424 247.604 142.485C248.267 147.679 249.229 149.947 248.598 152.237C247.422 156.503 242.353 159.243 242.252 163.666C242.174 167.126 245.233 169.795 248.217 171.552C250.585 172.945 253.14 174.128 255.868 174.454C258.596 174.78 261.533 174.155 263.566 172.308C266.187 169.925 266.836 165.945 266.084 162.485C265.332 159.025 263.404 155.952 261.497 152.968" fill="#2F2E41"/>
<rect x="317" y="157" width="196" height="129" fill="white"/>
<path d="M508.25 156.54H320.89C319.63 156.542 318.423 157.042 317.533 157.932C316.643 158.821 316.142 160.027 316.14 161.285V281.499C316.142 282.757 316.643 283.963 317.533 284.852C318.423 285.742 319.63 286.242 320.89 286.244H508.25C509.509 286.242 510.716 285.742 511.607 284.852C512.497 283.963 512.998 282.757 513 281.499V161.285C512.998 160.027 512.497 158.821 511.607 157.932C510.716 157.042 509.509 156.542 508.25 156.54ZM511.944 281.499C511.943 282.477 511.554 283.416 510.861 284.108C510.168 284.799 509.229 285.189 508.25 285.19H320.89C319.91 285.189 318.971 284.799 318.278 284.108C317.586 283.416 317.196 282.477 317.195 281.499V161.285C317.196 160.306 317.586 159.368 318.278 158.676C318.971 157.984 319.91 157.595 320.89 157.594H508.25C509.229 157.595 510.168 157.984 510.861 158.676C511.554 159.368 511.943 160.306 511.944 161.285V281.499Z" fill="#3F3D56"/>
<path d="M360.882 216.381H331.326C330.137 216.379 328.997 215.907 328.156 215.066C327.315 214.226 326.842 213.087 326.84 211.899V182.373C326.842 181.185 327.315 180.045 328.156 179.205C328.997 178.365 330.137 177.892 331.326 177.891H360.882C362.071 177.892 363.211 178.365 364.052 179.205C364.893 180.045 365.367 181.185 365.368 182.373V211.899C365.367 213.087 364.893 214.226 364.052 215.066C363.211 215.907 362.071 216.379 360.882 216.381Z" fill="#BCBCBC"/>
<path d="M498.492 247.757H330.66C329.75 247.757 328.877 247.396 328.234 246.753C327.59 246.111 327.229 245.239 327.229 244.33C327.229 243.421 327.59 242.549 328.234 241.907C328.877 241.264 329.75 240.903 330.66 240.903H498.492C499.402 240.903 500.275 241.264 500.918 241.907C501.561 242.549 501.923 243.421 501.923 244.33C501.923 245.239 501.561 246.111 500.918 246.753C500.275 247.396 499.402 247.757 498.492 247.757Z" fill="#CCCCCC"/>
<path d="M498.605 231.149H330.772C329.863 231.149 328.99 230.788 328.347 230.145C327.703 229.502 327.342 228.63 327.342 227.722C327.342 226.813 327.703 225.941 328.347 225.298C328.99 224.655 329.863 224.294 330.772 224.294H498.605C499.515 224.294 500.387 224.655 501.031 225.298C501.674 225.941 502.035 226.813 502.035 227.722C502.035 228.63 501.674 229.502 501.031 230.145C500.387 230.788 499.515 231.149 498.605 231.149Z" fill="#CCCCCC"/>
<path d="M415.744 208.472H390.938C390.029 208.472 389.156 208.111 388.513 207.468C387.869 206.825 387.508 205.953 387.508 205.044C387.508 204.136 387.869 203.264 388.513 202.621C389.156 201.978 390.029 201.617 390.938 201.617H415.744C416.654 201.617 417.526 201.978 418.17 202.621C418.813 203.264 419.174 204.136 419.174 205.044C419.174 205.953 418.813 206.825 418.17 207.468C417.526 208.111 416.654 208.472 415.744 208.472Z" fill="#CCCCCC"/>
<path d="M498.605 191.605H390.938C390.029 191.605 389.156 191.244 388.513 190.601C387.869 189.958 387.508 189.086 387.508 188.177C387.508 187.269 387.869 186.397 388.513 185.754C389.156 185.111 390.029 184.75 390.938 184.75H498.605C499.514 184.75 500.387 185.111 501.03 185.754C501.674 186.397 502.035 187.269 502.035 188.177C502.035 189.086 501.674 189.958 501.03 190.601C500.387 191.244 499.514 191.605 498.605 191.605Z" fill="#CCCCCC"/>
<path d="M411.522 264.629H330.66C329.75 264.629 328.877 264.268 328.234 263.626C327.59 262.983 327.229 262.111 327.229 261.202C327.229 260.293 327.59 259.422 328.234 258.779C328.877 258.136 329.75 257.775 330.66 257.775H411.522C412.432 257.775 413.304 258.136 413.948 258.779C414.591 259.422 414.952 260.293 414.952 261.202C414.952 262.111 414.591 262.983 413.948 263.626C413.304 264.268 412.432 264.629 411.522 264.629Z" fill="#CCCCCC"/>
</g>
<defs>
<clipPath id="clip0_356_10279">
<rect width="513" height="337.388" fill="white"/>
</clipPath>
</defs>
</svg>
