<svg width="94" height="94" viewBox="0 0 94 94" fill="none" xmlns="http://www.w3.org/2000/svg">
<path d="M28.7451 76.833C29.3983 75.7415 29.2266 74.3445 28.3266 73.445L20.5546 65.6735C19.6548 64.7738 18.2588 64.6018 17.1668 65.2545C16.2543 65.8018 8.16231 70.6835 5.17031 73.6768C-0.617188 79.4635 0.801812 90.3068 0.864562 90.7653C0.949562 91.381 1.23381 91.9313 1.65106 92.348C2.06856 92.7655 2.61856 93.0505 3.23456 93.135C3.69231 93.198 14.5356 94.6165 20.3226 88.8295C23.3158 85.837 28.1981 77.7455 28.7451 76.833Z" fill="#F00000"/>
<path d="M10.0838 43.4052C9.69455 43.0157 9.42355 42.513 9.3188 41.9567C9.14955 41.0562 9.43555 40.1297 10.0838 39.4815L21.8223 27.7432C22.6301 26.9352 23.8511 26.7055 24.8986 27.1652L43.0708 35.1372C43.9096 35.5057 44.5123 36.2637 44.6826 37.1645C44.8513 38.0655 44.5656 38.9915 43.9173 39.6387L32.1791 51.3772C31.3703 52.186 30.1496 52.415 29.1023 51.9565L10.9306 43.9847C10.6103 43.8432 10.3243 43.6457 10.0838 43.4052Z" fill="#F00000"/>
<path d="M50.5945 83.916C50.3537 83.676 50.1565 83.3898 50.016 83.0693L42.0437 64.8968C41.585 63.8505 41.815 62.629 42.6232 61.821L54.3615 50.0828C55.0097 49.4345 55.9357 49.148 56.8352 49.3173C57.7362 49.4873 58.4957 50.0905 58.8632 50.9295L66.8355 69.1018C67.295 70.1485 67.0652 71.3693 66.2565 72.1783L54.518 83.9165C53.8702 84.5638 52.9442 84.85 52.044 84.6808C51.4867 84.5768 50.9845 84.3058 50.5945 83.916Z" fill="#F00000"/>
<path d="M75.0283 46.5098C71.9368 49.601 67.043 53.6968 61.8733 57.7923C55.6435 62.7308 49.0148 67.6738 44.6643 70.8693C42.3098 72.5995 40.6218 73.8163 40.025 74.243C39.9295 74.3133 39.864 74.3618 39.8255 74.3873C38.7238 75.1793 37.2075 75.0563 36.2478 74.0963L19.9035 57.752C18.9435 56.7925 18.8205 55.2765 19.6108 54.1723C19.6363 54.1385 19.6808 54.0768 19.7418 53.9898C20.158 53.4125 21.3828 51.7158 23.1308 49.3358C26.326 44.9853 31.2688 38.3565 36.2078 32.1273C40.3033 26.957 44.3988 22.063 47.4903 18.9718C52.902 13.5598 59.4098 9.76126 65.4655 7.12451L86.8758 28.5348C84.2388 34.5898 80.4408 41.0978 75.0283 46.5098Z" fill="#BCBCBC"/>
<path d="M26.0698 79.0355L14.9651 67.9295C12.4391 65.4045 12.4391 61.294 14.9651 58.768L19.9051 53.8282L40.1721 74.0952L35.2321 79.035C32.7058 81.5612 28.5958 81.5612 26.0698 79.0355Z" fill="#F00000"/>
<path d="M18.5554 71.521L40.5034 49.572C41.5869 48.4887 43.3439 48.4892 44.4272 49.5722C45.5102 50.6557 45.5109 52.4122 44.4272 53.496L22.4794 75.4437L18.5554 71.521Z" fill="#EFEFEF"/>
<path d="M60.2121 33.7877C57.6884 31.264 57.6884 27.157 60.2121 24.633C62.7364 22.109 66.8431 22.109 69.3671 24.633C71.8911 27.1572 71.8914 31.2642 69.3674 33.7882C66.8431 36.3115 62.7361 36.3112 60.2121 33.7877Z" fill="white"/>
<path d="M58.2496 35.7503C54.6431 32.1443 54.6429 26.2757 58.2496 22.6695C61.8559 19.0632 67.7241 19.0635 71.3299 22.6695C74.9369 26.276 74.9369 32.1438 71.3301 35.7503C67.7241 39.3568 61.8561 39.357 58.2496 35.7503ZM67.4064 26.5935C65.9636 25.1507 63.6159 25.1507 62.1731 26.5935C60.7304 28.0362 60.7304 30.3843 62.1731 31.8268C63.6156 33.2698 65.9634 33.2698 67.4064 31.8268C68.8496 30.3838 68.8491 28.0365 67.4064 26.5935Z" fill="#F00000"/>
<path d="M86.8761 28.5345L65.4658 7.12426C68.9223 5.61676 72.2281 4.48926 75.1006 3.65476C83.6043 1.18576 90.0863 0.695514 90.3576 0.674014C91.1626 0.616764 91.9503 0.911764 92.5216 1.47901C93.0886 2.05001 93.3831 2.83776 93.3261 3.64226C93.3051 3.91401 92.8166 10.394 90.3451 18.8995C89.5111 21.772 88.3838 25.078 86.8761 28.5345Z" fill="#F00000"/>
</svg>
