<svg width="513" height="344" viewBox="0 0 513 344" fill="none" xmlns="http://www.w3.org/2000/svg">
<g clip-path="url(#clip0_356_10193)">
<path d="M513 182.831C513 252.412 468.918 311.698 407.175 334.257C397.782 337.695 388.086 340.241 378.216 341.861C351.063 346.316 323.223 343.787 297.317 334.511C235.182 312.137 190.778 252.651 190.807 182.797C190.807 93.8214 262.935 21.6615 351.904 21.6615C385.528 21.6126 418.317 32.1367 445.638 51.7465C486.424 80.9816 513 128.8 513 182.831Z" fill="#F00000"/>
<path d="M407.174 334.257C397.782 337.695 388.086 340.241 378.216 341.861C351.063 346.316 323.223 343.787 297.316 334.51L304.756 304.645L305.205 302.853L320.387 302.912L396.659 303.185L397.635 306.071L407.174 334.257Z" fill="#2F2E41"/>
<path d="M139.935 0H0V158.412H139.935V0Z" fill="#E6E6E6"/>
<path d="M137.195 3.35132H2.49512V155.061H137.195V3.35132Z" fill="white"/>
<path d="M69.9675 149.667C74.1376 149.667 77.5181 146.285 77.5181 142.113C77.5181 137.941 74.1376 134.559 69.9675 134.559C65.7975 134.559 62.417 137.941 62.417 142.113C62.417 146.285 65.7975 149.667 69.9675 149.667Z" fill="#E6E6E6"/>
<path d="M68.6921 57.0534H25.3245V61.4919H68.6921V57.0534Z" fill="#E6E6E6"/>
<path d="M90.7779 70.3538H25.3245V74.7923H90.7779V70.3538Z" fill="#BCBCBC"/>
<path d="M84.3531 83.7377H25.3245V88.1762H84.3531V83.7377Z" fill="#E6E6E6"/>
<path d="M116.477 96.7679H25.3245V101.206H116.477V96.7679Z" fill="#BCBCBC"/>
<path d="M100.559 109.177H26.272V113.616H100.559V109.177Z" fill="#E6E6E6"/>
<path d="M198.983 257.769C199.515 258.315 200.003 258.903 200.443 259.527L268.84 257.853L276.819 243.265L300.398 252.435L288.779 279.632C287.841 281.83 286.215 283.663 284.147 284.857C282.078 286.051 279.678 286.542 277.307 286.255L200.03 276.916C198.207 279.225 195.725 280.923 192.913 281.786C190.102 282.649 187.094 282.635 184.291 281.747C181.488 280.858 179.021 279.136 177.22 276.811C175.418 274.485 174.367 271.666 174.206 268.729C174.045 265.791 174.782 262.874 176.318 260.365C177.855 257.857 180.118 255.876 182.808 254.686C185.497 253.495 188.485 253.153 191.374 253.703C194.263 254.253 196.916 255.67 198.98 257.766L198.983 257.769Z" fill="#9F616A"/>
<path d="M291.042 174.474L323.051 163.978L332.452 151.08L378.201 153.788L384.918 168.84L409.313 180.373L405.564 250.029L399.15 315.218C366.17 298.133 304.621 311.159 304.082 311.371L291.042 174.474Z" fill="#BCBCBC"/>
<path d="M297.885 268.757L265.327 255.725L265.465 255.145C265.605 254.559 279.462 196.628 281.302 187.318C283.219 177.619 290.221 174.937 290.519 174.828L290.736 174.748L303.621 178.672L309.28 223.155L297.885 268.757Z" fill="#BCBCBC"/>
<path d="M368.184 312.353C368.947 312.334 369.71 312.377 370.467 312.479L415.743 261.162L410.477 245.394L433.229 234.331L445.265 261.345C446.238 263.528 446.476 265.967 445.945 268.296C445.414 270.626 444.142 272.72 442.32 274.265L382.934 324.605C383.386 327.512 382.943 330.488 381.664 333.137C380.385 335.786 378.33 337.982 375.772 339.435C373.214 340.887 370.276 341.525 367.346 341.266C364.417 341.006 361.636 339.86 359.374 337.981C357.111 336.101 355.474 333.577 354.681 330.745C353.887 327.912 353.974 324.904 354.93 322.122C355.887 319.34 357.667 316.915 360.034 315.17C362.402 313.425 365.244 312.442 368.184 312.353Z" fill="#9F616A"/>
<path d="M412.129 266.158L393.242 221.711L400.609 190.751L408.546 180.719C409.127 180.471 409.754 180.345 410.386 180.351C411.018 180.357 411.642 180.494 412.219 180.754C415.148 181.932 417.638 185.545 419.628 191.49L437.329 241.931L412.129 266.158Z" fill="#BCBCBC"/>
<path d="M314.139 134.61V101.101C314.12 95.2047 315.261 89.3621 317.499 83.9069C319.736 78.4517 323.026 73.4909 327.179 69.3076C331.333 65.1243 336.27 61.8004 341.708 59.5259C347.145 57.2513 352.978 56.0706 358.872 56.051C364.766 56.0315 370.606 57.1736 376.058 59.412C381.511 61.6505 386.47 64.9415 390.651 69.0972C394.832 73.2529 398.155 78.1918 400.428 83.632C402.702 89.0723 403.882 94.9072 403.902 100.804C403.902 100.903 403.902 101.002 403.902 101.101V134.61C403.9 136.209 403.264 137.742 402.134 138.873C401.003 140.004 399.471 140.64 397.873 140.641H320.168C318.57 140.64 317.037 140.004 315.907 138.873C314.777 137.742 314.141 136.209 314.139 134.61Z" fill="#2F2E41"/>
<path d="M349.798 139.861C367.971 139.861 382.703 125.122 382.703 106.941C382.703 88.7595 367.971 74.0207 349.798 74.0207C331.625 74.0207 316.893 88.7595 316.893 106.941C316.893 125.122 331.625 139.861 349.798 139.861Z" fill="#9F616A"/>
<path d="M303.521 103.782C303.532 94.365 307.276 85.3367 313.932 78.6779C320.588 72.019 329.612 68.2734 339.025 68.2628H345.724C355.137 68.2734 364.161 72.019 370.816 78.6779C377.472 85.3368 381.216 94.3651 381.227 103.782V104.452H367.07L362.241 90.9237L361.275 104.452H353.96L351.524 97.6274L351.036 104.452H303.521V103.782Z" fill="#2F2E41"/>
<path d="M346.56 144.41C345.895 143.509 345.498 142.439 345.415 141.323C345.331 140.207 345.564 139.09 346.088 138.101C353.186 124.593 363.125 99.6326 349.933 84.2394L348.987 83.1347H387.287V140.662L352.494 146.804C352.142 146.866 351.785 146.898 351.428 146.898C350.478 146.898 349.541 146.673 348.696 146.24C347.85 145.808 347.119 145.181 346.562 144.411L346.56 144.41Z" fill="#2F2E41"/>
<path d="M69.8458 12.3378C66.6701 12.3376 63.5657 13.2796 60.9252 15.0445C58.2847 16.8095 56.2265 19.3182 55.0111 22.2534C53.7957 25.1885 53.4776 28.4184 54.0969 31.5345C54.7163 34.6505 56.2454 37.5129 58.4908 39.7595C60.7362 42.0062 63.5971 43.5363 66.7117 44.1562C69.8263 44.7762 73.0547 44.4583 75.9887 43.2426C78.9227 42.0269 81.4305 39.9682 83.1949 37.3266C84.9593 34.685 85.9012 31.5793 85.9013 28.4023V28.4014C85.9013 26.2919 85.486 24.2031 84.6791 22.2541C83.8722 20.3052 82.6895 18.5343 81.1985 17.0427C79.7076 15.5511 77.9375 14.3678 75.9895 13.5605C74.0414 12.7533 71.9535 12.3378 69.845 12.3378H69.8458ZM69.8458 17.1564C70.7984 17.1564 71.7296 17.439 72.5217 17.9685C73.3138 18.498 73.9311 19.2506 74.2956 20.1311C74.6602 21.0115 74.7556 21.9804 74.5697 22.9152C74.3839 23.8499 73.9252 24.7085 73.2516 25.3824C72.578 26.0563 71.7198 26.5152 70.7855 26.7012C69.8512 26.8871 68.8827 26.7917 68.0026 26.427C67.1225 26.0623 66.3703 25.4446 65.841 24.6522C65.3118 23.8598 65.0293 22.9282 65.0293 21.9751C65.0293 20.6971 65.5368 19.4715 66.44 18.5678C67.3433 17.6641 68.5684 17.1564 69.8458 17.1564ZM69.8458 40.3556C67.9429 40.3469 66.0709 39.8739 64.3921 38.9776C62.7133 38.0812 61.2784 36.7887 60.212 35.212C60.2893 31.9993 66.6345 30.2309 69.8458 30.2309C73.0571 30.2309 79.4023 31.9993 79.4796 35.212C78.412 36.7875 76.9768 38.0792 75.2983 38.9754C73.6198 39.8716 71.7484 40.3453 69.8458 40.3556Z" fill="#BCBCBC"/>
<path d="M70.0326 145.009C76.6473 132.882 92.4933 125.202 105.456 132.124C111.29 135.24 115.928 140.751 117.401 147.264C119.109 154.831 115.509 162.046 111.793 168.403C109.776 171.853 107.565 175.233 105.896 178.873C104.167 182.642 102.931 186.998 104.233 191.098C105.404 194.792 108.342 197.478 111.559 199.453C115.11 201.549 118.887 203.237 122.817 204.483C130.908 207.175 139.441 208.28 147.95 207.736C152.179 207.449 156.373 206.771 160.477 205.711C164.843 204.597 169.127 203.186 173.5 202.096C180.801 200.282 189.126 199.38 196.049 203.024C202.775 206.566 205.785 213.974 206.716 221.18C208.435 234.487 203.162 248.295 193.64 257.614C189.072 262.085 183.323 265.778 177.062 267.289C171.598 268.608 164.583 268.524 160.236 264.438C155.384 259.878 156.526 252.565 160.379 247.754C165.297 241.616 173.629 240.141 181.065 239.992C189.523 239.822 197.973 241.082 206.426 240.298C210.552 239.977 214.601 239 218.419 237.404C221.777 235.927 224.839 233.854 227.458 231.285C232.676 226.213 236.196 219.455 237.946 212.429C240.054 203.98 239.594 195.1 237.958 186.613C237.087 182.237 235.964 177.915 234.596 173.668C234.031 171.875 231.202 172.642 231.771 174.447C236.809 190.429 239.618 208.909 229.885 223.748C225.856 230.041 219.581 234.56 212.338 236.384C203.914 238.479 195.074 237.443 186.51 237.132C178.366 236.835 169.424 237.155 162.443 241.9C156.716 245.792 152.711 253.195 154.442 260.184C156.111 266.924 162.585 270.343 169.06 270.869C175.854 271.423 182.539 269.142 188.245 265.575C200.114 258.154 208.006 245.105 209.657 231.269C210.518 224.06 209.642 216.294 206.374 209.751C204.652 206.209 201.972 203.221 198.638 201.125C195.314 199.086 191.474 198.083 187.617 197.728C178.856 196.92 170.438 199.93 162.126 202.232C157.88 203.465 153.528 204.296 149.127 204.715C144.855 205.069 140.559 204.999 136.302 204.506C132.077 204.007 127.913 203.082 123.874 201.746C119.916 200.522 116.127 198.808 112.594 196.644C109.477 194.65 106.781 191.794 106.628 187.902C106.461 183.682 108.588 179.734 110.611 176.176C114.608 169.148 119.545 162.273 120.587 154.045C121.5 146.848 118.605 139.754 113.606 134.62C111.101 132.015 108.085 129.955 104.747 128.569C101.409 127.184 97.821 126.503 94.2078 126.569C86.791 126.782 79.6896 130.008 74.2343 134.964C71.5286 137.423 69.2518 140.317 67.4975 143.526C66.5939 145.182 69.1221 146.662 70.0267 145.004L70.0326 145.009Z" fill="#3F3D56"/>
</g>
<defs>
<clipPath id="clip0_356_10193">
<rect width="513" height="344" fill="white"/>
</clipPath>
</defs>
</svg>
